<?xml version="1.0" encoding="UTF-8" standalone="no"?>
<!-- Created with Inkscape (http://www.inkscape.org/) -->

<svg
   width="70mm"
   height="70mm"
   viewBox="0 0 70 70"
   version="1.1"
   id="svg1"
   sodipodi:docname="logo.svg"
   inkscape:version="1.3.2 (091e20ef0f, 2023-11-25, custom)"
   xmlns:inkscape="http://www.inkscape.org/namespaces/inkscape"
   xmlns:sodipodi="http://sodipodi.sourceforge.net/DTD/sodipodi-0.dtd"
   xmlns="http://www.w3.org/2000/svg"
   xmlns:svg="http://www.w3.org/2000/svg">
  <sodipodi:namedview
     id="namedview1"
     pagecolor="#ffffff"
     bordercolor="#000000"
     borderopacity="0.25"
     inkscape:showpageshadow="2"
     inkscape:pageopacity="0.0"
     inkscape:pagecheckerboard="0"
     inkscape:deskcolor="#d1d1d1"
     inkscape:document-units="mm"
     inkscape:zoom="2.3011691"
     inkscape:cx="92.344364"
     inkscape:cy="46.063542"
     inkscape:window-width="3840"
     inkscape:window-height="2060"
     inkscape:window-x="0"
     inkscape:window-y="0"
     inkscape:window-maximized="1"
     inkscape:current-layer="layer2" />
  <defs
     id="defs1" />
  <g
     inkscape:groupmode="layer"
     id="layer2"
     inkscape:label="Crab">
    <path
       id="path9"
       style="fill:#ea580c;fill-opacity:1;stroke-linecap:round;stroke-linejoin:round"
       inkscape:label="path9"
       d="m 67.228004,21.290288 c -1.253554,-1.8e-4 -2.269808,1.016075 -2.269629,2.269629 8e-5,0.951256 0.585797,1.76542 1.415934,2.102714 v 5.774324 l -4.681885,4.681885 h -2.976562 c -0.552237,3.4e-5 -0.999905,0.447702 -0.999939,0.999939 3.4e-5,0.552235 0.447702,0.999905 0.999939,0.999939 h 3.390491 c 0.265169,-8.7e-5 0.519452,-0.10548 0.706933,-0.293006 l 5.267896,-5.267378 c 0.187652,-0.187609 0.293056,-0.442101 0.293005,-0.707451 V 25.58925 c -1e-6,-0.02336 -0.0019,-0.04633 -0.0036,-0.06925 0.673627,-0.39352 1.126475,-1.123664 1.126546,-1.960087 1.79e-4,-1.253352 -1.015761,-2.269523 -2.269112,-2.269629 z m 0,1.281058 c 0.545826,1.47e-4 0.988192,0.442743 0.988053,0.988571 -1.46e-4,0.545624 -0.442429,0.987906 -0.988053,0.988053 -0.545827,1.39e-4 -0.988424,-0.442227 -0.98857,-0.988053 -1.39e-4,-0.54603 0.442541,-0.988709 0.98857,-0.988571 z m 0.166915,3.250965 c -0.0069,5.34e-4 -0.01376,0.0011 -0.02067,0.0016 0.0069,-4.41e-4 0.01378,-10e-4 0.02067,-0.0016 z m -9.68468,14.710213 c -0.552641,-2.52e-4 -1.000708,0.447815 -1.000456,1.000456 3.4e-5,0.552437 0.448017,1.00019 1.000456,0.999939 h 3.786849 l 4.412133,4.412133 v 4.790922 c 2e-6,0.01987 0.0017,0.03938 0.0031,0.05891 -0.731966,0.376504 -1.232925,1.138722 -1.233,2.018481 -1.79e-4,1.253351 1.015763,2.269523 2.269112,2.269629 1.253553,1.79e-4 2.269808,-1.016076 2.269629,-2.269629 -7.7e-5,-0.91027 -0.536416,-1.694698 -1.309997,-2.056205 4.58e-4,-0.007 0.001,-0.01404 0.001,-0.02119 v -5.205367 c -8.6e-5,-0.265169 -0.10548,-0.519452 -0.293005,-0.706933 L 62.617915,40.825525 C 62.430435,40.638 62.176151,40.532607 61.910982,40.53252 Z m -3.431832,4.218864 c -0.552237,3.4e-5 -0.999906,0.447702 -0.999939,0.999939 3.3e-5,0.552235 0.447702,0.999905 0.999939,0.999939 h 2.082043 l 4.034896,4.035412 v 5.78311 c 10e-7,0.01256 0.0014,0.02481 0.0021,0.03721 a 2.2693045,2.2693045 0 0 0 -1.240751,2.016931 2.2693045,2.2693045 0 0 0 2.269112,2.269112 2.2693045,2.2693045 0 0 0 2.269112,-2.269112 2.2693045,2.2693045 0 0 0 -1.299145,-2.04897 c 1.24e-4,-0.0017 -1e-6,-0.0034 0,-0.0052 v -6.197038 c 5e-5,-0.265349 -0.105353,-0.519842 -0.293006,-0.70745 l -4.621423,-4.620907 c -0.187482,-0.187525 -0.441763,-0.292918 -0.706934,-0.293005 z m -3.91604,4.513936 c -0.552237,3.4e-5 -0.999906,0.447704 -0.999939,0.999939 3.3e-5,0.552237 0.447702,0.999905 0.999939,0.999939 h 1.94355 l 1.269173,1.26969 v 4.634343 l -3.877799,2.240173 c -0.365235,-0.251292 -0.807321,-0.398902 -1.284159,-0.398942 -1.25315,1.06e-4 -2.269006,1.015962 -2.269113,2.269112 1.07e-4,1.25315 1.015963,2.269006 2.269113,2.269112 1.253148,-1.06e-4 2.269006,-1.015962 2.269112,-2.269112 -4e-6,-0.04338 -0.0017,-0.08641 -0.0041,-0.129191 0.0054,-0.0026 0.01076,-0.0052 0.01602,-0.0083 l 4.381128,-2.529045 c 0.309336,-0.17851 0.500002,-0.508434 0.500228,-0.86558 v -5.627047 c -8.6e-5,-0.26517 -0.10548,-0.519453 -0.293005,-0.706933 L 53.426814,49.558298 C 53.239332,49.370772 52.98505,49.265379 52.719881,49.265292 Z m 16.586067,3.55999 c 0.545827,-1.39e-4 0.988424,0.442227 0.988571,0.988053 1.39e-4,0.546028 -0.442542,0.988709 -0.988571,0.98857 -0.545826,-1.47e-4 -0.988192,-0.442744 -0.988053,-0.98857 1.47e-4,-0.545624 0.442429,-0.987906 0.988053,-0.988053 z m -5.52266,3.5295 c 0.0969,8e-6 0.191472,0.0082 0.284737,0.02067 a 2.2693045,2.2693045 0 0 0 -0.284737,-0.02067 z m 0,0 a 2.2693045,2.2693045 0 0 0 -0.297656,0.02119 c 0.09727,-0.01377 0.196314,-0.02118 0.297656,-0.02119 z m -0.365352,0.03256 a 2.2693045,2.2693045 0 0 0 -0.187069,0.04082 c 0.06134,-0.01629 0.123784,-0.0298 0.187069,-0.04082 z m 0.795817,0.01395 c 0.0367,0.0075 0.07352,0.01451 0.109554,0.02377 a 2.2693045,2.2693045 0 0 0 -0.109554,-0.02377 z m -0.430465,1.23455 a 0.9883191,0.9883191 0 0 1 0.98857,0.988053 0.9883191,0.9883191 0 0 1 -0.98857,0.98857 0.9883191,0.9883191 0 0 1 -0.98857,-0.98857 0.9883191,0.9883191 0 0 1 0.98857,-0.988053 z m -13.012642,2.655652 c 0.545826,-1.39e-4 0.988423,0.442227 0.98857,0.988053 1.39e-4,0.546028 -0.442542,0.988709 -0.98857,0.98857 -0.546029,1.39e-4 -0.988709,-0.442542 -0.988571,-0.98857 1.47e-4,-0.545826 0.442743,-0.988192 0.988571,-0.988053 z M 2.8898124,21.290289 c -1.253351,1.06e-4 -2.269291,1.016277 -2.269112,2.269629 7.1e-5,0.836423 0.452919,1.566567 1.126546,1.960087 -0.0018,0.02293 -0.0036,0.04588 -0.0036,0.06925 v 6.261633 c -5.1e-5,0.26535 0.105353,0.519842 0.293005,0.707451 l 5.267896,5.267378 c 0.187481,0.187526 0.441764,0.292919 0.706933,0.293006 h 3.3904736 c 0.552237,-3.4e-5 0.999905,-0.447704 0.999939,-0.999939 -3.4e-5,-0.552237 -0.447702,-0.999905 -0.999939,-0.999939 H 8.4253924 L 3.7440244,31.43696 v -5.774841 c 0.829807,-0.337448 1.415337,-1.151178 1.415417,-2.102197 1.79e-4,-1.253554 -1.016075,-2.269809 -2.269629,-2.269629 z m 0,1.281058 c 0.546029,-1.38e-4 0.988709,0.442541 0.98857,0.988571 -1.46e-4,0.545826 -0.442743,0.988192 -0.98857,0.988053 -0.545624,-1.47e-4 -0.987907,-0.442429 -0.988053,-0.988053 -1.39e-4,-0.545828 0.442227,-0.988424 0.988053,-0.988571 z m -0.166915,3.250965 c 0.0069,5.02e-4 0.01376,0.0011 0.02067,0.0016 -0.0069,-4.69e-4 -0.01378,-0.001 -0.02067,-0.0016 z m 5.483903,14.710213 c -0.265169,8.7e-5 -0.519453,0.10548 -0.706933,0.293005 l -4.998145,4.998145 c -0.187525,0.187481 -0.292919,0.441764 -0.293005,0.706933 v 5.205367 c 0,0.0071 5.85e-4,0.01414 0.001,0.02119 -0.77358,0.361507 -1.30992,1.145935 -1.309997,2.056205 -1.79e-4,1.253553 1.016076,2.269808 2.269629,2.269629 1.253349,-1.06e-4 2.269291,-1.016278 2.269112,-2.269629 -7.5e-5,-0.879759 -0.501034,-1.641977 -1.233,-2.018481 0.0014,-0.01954 0.0031,-0.03904 0.0031,-0.05891 v -4.790927 l 4.412167,-4.412133 h 3.7873656 c 0.552237,-3.4e-5 0.999905,-0.447704 0.999939,-0.999939 2.52e-4,-0.552439 -0.4475,-1.000422 -0.999939,-1.000456 z m 5.1366376,4.218864 c -0.26517,8.7e-5 -0.519452,0.10548 -0.706934,0.293005 l -4.6214226,4.620907 c -0.187463,0.187693 -0.292676,0.442175 -0.292489,0.70745 v 6.197038 c 0,0.0016 -1.17e-4,0.0031 0,0.0047 a 2.2693045,2.2693045 0 0 0 -1.299662,2.049487 2.2693045,2.2693045 0 0 0 2.269112,2.269112 2.2693045,2.2693045 0 0 0 2.2691116,-2.269112 2.2693045,2.2693045 0 0 0 -1.2407506,-2.016931 c 6.74e-4,-0.01239 0.0021,-0.02465 0.0021,-0.03721 v -5.78311 l 4.0348956,-4.035412 h 2.082043 c 0.552237,-3.4e-5 0.999906,-0.447704 0.999939,-0.999939 -3.3e-5,-0.552237 -0.447702,-0.999905 -0.999939,-0.999939 z m 4.054533,4.513936 c -0.265171,8.7e-5 -0.519452,0.10548 -0.706934,0.293006 l -1.855184,1.855184 c -0.187526,0.18748 -0.292919,0.441763 -0.293005,0.706933 v 5.627047 c 1.2e-4,0.35704 0.190574,0.686939 0.499711,0.86558 l 4.381128,2.529045 c 0.0055,0.0031 0.01099,0.006 0.01654,0.0088 -0.0024,0.04261 -0.0041,0.08547 -0.0041,0.128674 1.06e-4,1.25315 1.015962,2.269006 2.269112,2.269112 1.25315,-1.06e-4 2.269006,-1.015962 2.269112,-2.269112 -1.06e-4,-1.25315 -1.015962,-2.269006 -2.269112,-2.269112 -0.477142,4e-5 -0.919824,0.147358 -1.285193,0.398942 l -3.877282,-2.240173 v -4.634343 l 1.269689,-1.26969 h 1.943034 c 0.552237,-3.4e-5 0.999906,-0.447702 0.999939,-0.999939 -3.3e-5,-0.552235 -0.447702,-0.999905 -0.999939,-0.999939 z m -14.2285886,3.55999 c 0.545624,1.47e-4 0.987906,0.442429 0.988053,0.988053 1.39e-4,0.545826 -0.442227,0.988423 -0.988053,0.98857 -0.546029,1.39e-4 -0.98871,-0.442542 -0.988571,-0.98857 1.47e-4,-0.545826 0.442744,-0.988192 0.988571,-0.988053 z m 5.52266,3.5295 c 0.101342,9e-6 0.200385,0.0074 0.297656,0.02119 a 2.2693045,2.2693045 0 0 0 -0.297656,-0.02119 z m 0,0 a 2.2693045,2.2693045 0 0 0 -0.284737,0.02067 c 0.09323,-0.01248 0.187883,-0.02066 0.284737,-0.02067 z m 0.365352,0.03256 c 0.06329,0.01103 0.125731,0.02453 0.187069,0.04082 a 2.2693045,2.2693045 0 0 0 -0.187069,-0.04082 z m -0.797367,0.01447 a 2.2693045,2.2693045 0 0 0 -0.106453,0.02325 c 0.03507,-0.009 0.07076,-0.01596 0.106453,-0.02325 z m 0.432015,1.234033 a 0.9883191,0.9883191 0 0 1 0.98857,0.988053 0.9883191,0.9883191 0 0 1 -0.98857,0.98857 0.9883191,0.9883191 0 0 1 -0.98857,-0.98857 0.9883191,0.9883191 0 0 1 0.98857,-0.988053 z M 21.705201,60.29153 c 0.545827,-1.39e-4 0.988424,0.442227 0.98857,0.988053 1.39e-4,0.546028 -0.442541,0.988709 -0.98857,0.98857 -0.546028,1.39e-4 -0.988709,-0.442542 -0.98857,-0.98857 1.47e-4,-0.545826 0.442744,-0.988192 0.98857,-0.988053 z M 21.250965,5.1228044 c -0.144718,-0.0012 -0.288233,0.02637 -0.422197,0.08113 -0.134128,0.05466 -0.256041,0.13547 -0.358634,0.237712 L 8.7395844,17.147388 c -0.102507,0.102389 -0.183658,0.224116 -0.238745,0.358118 -0.05505,0.133909 -0.08298,0.277414 -0.08217,0.422196 l 0.04961,9.426298 c 3.34e-4,0.06314 0.01044,0.131422 0.02842,0.201021 0.01798,0.0696 0.04391,0.140429 0.07545,0.208773 0.06308,0.136688 0.149515,0.263463 0.242363,0.348816 1.159173,1.065601 4.9143246,4.652007 6.0533766,5.740735 0.136931,0.13088 0.330198,0.156176 0.487826,0.0801 0.05254,-0.02536 0.100771,-0.06235 0.14211,-0.110071 l 4.753715,-5.488037 c 0.04741,-0.0546 0.08327,-0.118236 0.10542,-0.187069 0.03326,-0.103926 0.03395,-0.21553 0.0021,-0.319877 -0.01042,-0.03438 -0.02427,-0.06762 -0.04134,-0.09922 -0.01726,-0.03178 -0.03769,-0.06173 -0.06098,-0.0894 l -3.917073,-4.65398 c -0.0798,-0.09494 -0.120455,-0.216708 -0.113688,-0.340547 0.0067,-0.123785 0.06029,-0.240372 0.149861,-0.326079 l 1.999878,-1.917195 c 0.21251,-0.203707 0.492814,-0.321681 0.787032,-0.331246 l 2.323889,-0.07493 c 0.292819,-0.0096 0.570121,-0.133957 0.772046,-0.346232 l 5.534546,-5.815666 c 0.101958,-0.107139 0.186838,-0.229317 0.251664,-0.362252 0.0649,-0.132858 0.108998,-0.274905 0.130742,-0.421163 l 0.298143,-2.015898 v -5.17e-4 l 0.0015,-0.01085 c 0.05192,-0.354277 -0.366267,-0.580739 -0.634586,-0.343648 l -0.0072,0.0062 c -5.18e-4,3.43e-4 -9.5e-4,7.21e-4 -0.0015,0.001 l -2.162659,1.915129 c -0.203371,0.179963 -0.500583,0.205566 -0.731738,0.06305 l -0.624252,-0.384989 c -0.196246,-0.120664 -0.223958,-0.394943 -0.05581,-0.552421 l 4.864302,-4.5516596 c 0.216137,-0.20234 0.357011,-0.472244 0.399424,-0.765301 l 0.110071,-0.759644 c 0.01085,-0.07539 -9.1e-5,-0.152313 -0.03152,-0.221692 -0.01552,-0.03457 -0.03587,-0.06676 -0.06046,-0.0956 -0.02475,-0.02873 -0.05346,-0.05378 -0.08527,-0.07441 -0.03168,-0.02061 -0.06613,-0.03662 -0.10232,-0.04754 -0.03638,-0.01099 -0.07414,-0.01673 -0.112137,-0.01705 z m 27.615885,0 -7.988659,0.07183 a 0.39934428,0.39934428 0 0 0 -0.299724,0.13901 0.39934428,0.39934428 0 0 0 -0.09198,0.317293 l 0.110071,0.759644 a 1.3042403,1.3042403 0 0 0 0.134876,0.417029 1.3042403,1.3042403 0 0 0 0.264583,0.348299 l 4.864303,4.5516596 a 0.34924848,0.34924848 0 0 1 0.03927,0.467155 0.34924848,0.34924848 0 0 1 -0.09457,0.08527 l -0.624768,0.384989 a 0.61618718,0.61618718 0 0 1 -0.731739,-0.06305 l -2.162658,-1.915129 -0.0083,-0.0072 a 0.38422966,0.38422966 0 0 0 -0.635103,0.343648 l 0.299723,2.027266 a 1.4429478,1.4429478 0 0 0 0.130742,0.421163 1.4429478,1.4429478 0 0 0 0.251664,0.362252 l 5.534546,5.815666 a 1.1160178,1.1160178 0 0 0 0.772046,0.346232 l 2.323889,0.07493 a 1.1933731,1.1933731 0 0 1 0.787549,0.331246 l 1.999878,1.917195 a 0.48788663,0.48788663 0 0 1 0.06718,0.0801 0.48788663,0.48788663 0 0 1 0.04858,0.09302 0.48788663,0.48788663 0 0 1 0.01654,0.309025 0.48788663,0.48788663 0 0 1 -0.03824,0.09715 0.48788663,0.48788663 0 0 1 -0.0584,0.08733 l -3.917073,4.65398 a 0.53562371,0.53562371 0 0 0 0.0052,0.695565 l 4.753715,5.488037 c 0.02067,0.02386 0.04329,0.04527 0.06718,0.06356 0.02389,0.01829 0.04918,0.03383 0.07545,0.04651 0.131355,0.0634 0.286911,0.05606 0.414445,-0.02377 0.02551,-0.01597 0.05004,-0.03451 0.07286,-0.05633 0.569527,-0.544364 1.793272,-1.713519 3.019454,-2.879411 1.226183,-1.165891 2.454853,-2.328522 3.03444,-2.861324 0.185696,-0.170706 0.344377,-0.506054 0.345716,-0.75861 l 0.05013,-9.426298 a 1.0941693,1.0941693 0 0 0 -0.04341,-0.310575 1.0941693,1.0941693 0 0 0 -0.08992,-0.218075 1.0941693,1.0941693 0 0 0 -0.134359,-0.193786 1.0941693,1.0941693 0 0 0 -0.05374,-0.05788 L 49.647681,5.4416434 a 1.0917837,1.0917837 0 0 0 -0.358634,-0.237712 1.0917837,1.0917837 0 0 0 -0.422197,-0.08113 z m 5.62206,36.2891066 -6.592726,7.75087 a 7.2105271,4.8943139 0 0 1 -6.2445,2.447157 H 28.46623 a 7.2105271,4.8943139 0 0 1 -6.244499,-2.447157 l -6.592727,-7.75087 a 7.2105272,4.894314 0 0 1 0,-4.894314 l 6.592727,-7.750877 a 7.2105269,4.8943138 0 0 1 6.244499,-2.447156 h 13.185454 a 7.2105269,4.8943138 0 0 1 6.2445,2.447156 l 6.592726,7.750872 a 7.2105272,4.894314 0 0 1 0,4.894314 z M 29.546582,21.054131 a 2.0818896,2.0818896 0 0 0 -2.082043,2.081527 2.0818896,2.0818896 0 0 0 2.082043,2.082043 2.0818896,2.0818896 0 0 0 2.081527,-2.082043 2.0818896,2.0818896 0 0 0 -2.081527,-2.081527 z m 11.025167,0 a 2.0818896,2.0818896 0 0 0 -2.082043,2.081527 2.0818896,2.0818896 0 0 0 2.082043,2.082043 2.0818896,2.0818896 0 0 0 2.081527,-2.082043 2.0818896,2.0818896 0 0 0 -2.081527,-2.081527 z" />
  </g>
</svg>
