<?xml version="1.0" encoding="UTF-8" standalone="no"?>
<svg
   data-name="Layer 1"
   width="786.81995"
   height="572.25775"
   viewBox="0 0 786.81995 572.25773"
   version="1.1"
   id="svg96"
   sodipodi:docname="undraw_programming_re_kg9v.svg"
   inkscape:export-filename="undraw_programming_re_kg9v.png"
   inkscape:export-xdpi="96"
   inkscape:export-ydpi="96"
   xmlns:inkscape="http://www.inkscape.org/namespaces/inkscape"
   xmlns:sodipodi="http://sodipodi.sourceforge.net/DTD/sodipodi-0.dtd"
   xmlns="http://www.w3.org/2000/svg"
   xmlns:svg="http://www.w3.org/2000/svg">
  <defs
     id="defs96" />
  <sodipodi:namedview
     id="namedview96"
     pagecolor="#505050"
     bordercolor="#ffffff"
     borderopacity="1"
     inkscape:showpageshadow="0"
     inkscape:pageopacity="0"
     inkscape:pagecheckerboard="1"
     inkscape:deskcolor="#505050" />
  <circle
     cx="458.32135"
     cy="74.181618"
     r="26.70075"
     fill="#f2f2f2"
     id="circle1" />
  <path
     d="m 665.4475,497.15194 c 39.6877,-30.22889 58.64352,-81.02546 46.77635,-129.48234 q -0.44231,-1.806 -0.93367,-3.6038 c -7.86742,-28.76343 -27.33167,-56.10058 -55.7,-65.29129 -23.81971,-7.71694 -49.81962,-1.78274 -74.66936,-4.85149 -48.78136,-6.02417 -86.60057,-45.494 -113.21115,-86.81933 C 441.09903,165.77823 420.64785,119.52038 385.2881,85.37956 327.00331,29.1042 231.92618,16.98807 159.66139,53.61912 87.3967,90.25029 41.36484,171.51949 43.32797,252.51441 c 1.96322,80.995 50.04632,158.43176 119.87492,199.517 25.65222,15.093 55.32138,25.78522 84.84826,22.04377 25.62011,-3.24641 48.89908,-17.01264 74.39861,-21.09959 40.09115,-6.42568 79.92687,11.70084 114.60268,32.82375 34.67571,21.12288 68.17007,46.15988 107.57436,55.95242 38.26148,9.5085 85.66368,-17.8218 120.8207,-44.59982 z"
     fill="#f2f2f2"
     id="path1"
     style="fill:#e6e6e6;fill-opacity:1" />
  <path
     d="m 608.42597,55.31995 c -0.87006,-0.58 -1.75,-1.13 -2.62006,-1.69 a 380.24008,380.24008 0 0 0 -80.31,-38.93 l -6.54,90.22 h -41.46 v -103.39 c -2.61,-0.54 -5.24,-1.05 -7.87,-1.53 v 104.92 H 420.35584 A 102.26992,102.26992 0 0 1 318.08592,2.65007 v -10e-5 c -2.64,0.57 -5.26,1.18 -7.88,1.83 v 100.44 h -40.13 l -6.23,-86.03 a 380.8581,380.8581 0 0 0 -81.94,43.53 c -0.44,0.3 -0.88,0.61 -1.31,0.91 -2.21,1.55 -4.39,3.13 -6.56,4.73 v 344.19 h 118.27 l -2.09,-28.95 -11.5,-158.95 h 231.59 l -11.5,158.95 -2.09,28.95 h 116.96 v -353.45 q -2.61004,-1.76996 -5.24995,-3.48002 z m -298.22,142.78 h -33.39 l -6.17,-85.3 h 39.56 z m 159.42,0 h -56.08 v -1.69 a 6.17975,6.17975 0 0 0 -6.19,-6.18 h -24.38 a 6.17757,6.17757 0 0 0 -6.18,6.18 v 1.69 h -58.71 v -85.3 h 151.54 z m 7.87,0 v -85.3 h 40.89 l -6.17,85.3 z"
     fill="#3f3d56"
     id="path2" />
  <path
     d="m -3e-5,434.2908 a 289.0029,289.0029 0 0 0 28.12,28.95 l 730.58,1 a 289.0029,289.0029 0 0 0 28.12,-28.95 z"
     fill="#3f3d56"
     id="path3" />
  <path
     d="m 495.4299,341.59132 v 85.704 a 4.12233,4.12233 0 0 0 4.11906,4.11907 h 127.00449 a 4.12232,4.12232 0 0 0 4.11907,-4.11907 v -85.704 a 4.12433,4.12433 0 0 0 -4.11907,-4.11452 H 499.54897 a 4.12434,4.12434 0 0 0 -4.11907,4.11452 z"
     fill="#3f3d56"
     id="path4" />
  <path
     d="m 498.40936,342.65768 v 83.58039 a 2.20523,2.20523 0 0 0 2.20141,2.20141 h 124.88546 a 2.20522,2.20522 0 0 0 2.20141,-2.20141 v -83.58039 a 2.20621,2.20621 0 0 0 -2.20141,-2.206 H 500.61077 a 2.20623,2.20623 0 0 0 -2.20141,2.206 z"
     fill="#6c63ff"
     id="path5" />
  <path
     d="m 492.77373,444.00987 a 2.46985,2.46985 0 0 0 1.94346,0.92984 h 135.99195 a 2.5024,2.5024 0 0 0 2.44606,-3.0157 l -2.111,-10.02722 a 2.50694,2.50694 0 0 0 -1.55811,-1.81784 2.42467,2.42467 0 0 0 -0.888,-0.1675 H 496.81982 a 2.42446,2.42446 0 0 0 -0.888,0.1675 2.50671,2.50671 0 0 0 -1.55811,1.81784 l -2.111,10.02722 a 2.5005,2.5005 0 0 0 0.51102,2.08586 z"
     fill="#2f2e41"
     id="path6" />
  <rect
     x="-627.6322"
     y="-434.23038"
     width="4.1884899"
     height="2.5130899"
     rx="0.48819"
     transform="scale(-1)"
     fill="#3f3d56"
     id="rect6" />
  <rect
     x="-619.25531"
     y="-434.23038"
     width="4.1884899"
     height="2.5130899"
     rx="0.48819"
     transform="scale(-1)"
     fill="#3f3d56"
     id="rect7" />
  <rect
     x="-610.8783"
     y="-434.23038"
     width="4.1884899"
     height="2.5130899"
     rx="0.48819"
     transform="scale(-1)"
     fill="#3f3d56"
     id="rect8" />
  <rect
     x="-602.50134"
     y="-434.23038"
     width="4.1884899"
     height="2.5130899"
     rx="0.48819"
     transform="scale(-1)"
     fill="#3f3d56"
     id="rect9" />
  <rect
     x="-594.12433"
     y="-434.23038"
     width="4.1884899"
     height="2.5130899"
     rx="0.48819"
     transform="scale(-1)"
     fill="#3f3d56"
     id="rect10" />
  <rect
     x="-585.74738"
     y="-434.23038"
     width="4.1884899"
     height="2.5130899"
     rx="0.48819"
     transform="scale(-1)"
     fill="#3f3d56"
     id="rect11" />
  <rect
     x="-577.37036"
     y="-434.23038"
     width="4.1884899"
     height="2.5130899"
     rx="0.48819"
     transform="scale(-1)"
     fill="#3f3d56"
     id="rect12" />
  <rect
     x="-568.99341"
     y="-434.23038"
     width="4.1884899"
     height="2.5130899"
     rx="0.48819"
     transform="scale(-1)"
     fill="#3f3d56"
     id="rect13" />
  <rect
     x="-560.61639"
     y="-434.23038"
     width="4.1884899"
     height="2.5130899"
     rx="0.48819"
     transform="scale(-1)"
     fill="#3f3d56"
     id="rect14" />
  <rect
     x="-552.23944"
     y="-434.23038"
     width="4.1884899"
     height="2.5130899"
     rx="0.48819"
     transform="scale(-1)"
     fill="#3f3d56"
     id="rect15" />
  <rect
     x="-543.86243"
     y="-434.23038"
     width="4.1884899"
     height="2.5130899"
     rx="0.48819"
     transform="scale(-1)"
     fill="#3f3d56"
     id="rect16" />
  <rect
     x="-535.48547"
     y="-434.23038"
     width="4.1884899"
     height="2.5130899"
     rx="0.48819"
     transform="scale(-1)"
     fill="#3f3d56"
     id="rect17" />
  <rect
     x="-527.10846"
     y="-434.23038"
     width="4.1884899"
     height="2.5130899"
     rx="0.48819"
     transform="scale(-1)"
     fill="#3f3d56"
     id="rect18" />
  <rect
     x="-518.73151"
     y="-434.23038"
     width="4.1884899"
     height="2.5130899"
     rx="0.48819"
     transform="scale(-1)"
     fill="#3f3d56"
     id="rect19" />
  <rect
     x="-510.35452"
     y="-434.23038"
     width="4.1884899"
     height="2.5130899"
     rx="0.48819"
     transform="scale(-1)"
     fill="#3f3d56"
     id="rect20" />
  <rect
     x="-501.97748"
     y="-434.23038"
     width="4.1884899"
     height="2.5130899"
     rx="0.48819"
     transform="scale(-1)"
     fill="#3f3d56"
     id="rect21" />
  <rect
     x="-627.73126"
     y="-438.41888"
     width="4.1884899"
     height="2.5130899"
     rx="0.48819"
     transform="scale(-1)"
     fill="#3f3d56"
     id="rect22" />
  <rect
     x="-619.35425"
     y="-438.41888"
     width="4.1884899"
     height="2.5130899"
     rx="0.48819"
     transform="scale(-1)"
     fill="#3f3d56"
     id="rect23" />
  <rect
     x="-610.97729"
     y="-438.41888"
     width="4.1884899"
     height="2.5130899"
     rx="0.48819"
     transform="scale(-1)"
     fill="#3f3d56"
     id="rect24" />
  <rect
     x="-602.60028"
     y="-438.41888"
     width="4.1884899"
     height="2.5130899"
     rx="0.48819"
     transform="scale(-1)"
     fill="#3f3d56"
     id="rect25" />
  <rect
     x="-594.22327"
     y="-438.41888"
     width="4.1884899"
     height="2.5130899"
     rx="0.48819"
     transform="scale(-1)"
     fill="#3f3d56"
     id="rect26" />
  <rect
     x="-585.84631"
     y="-438.41888"
     width="4.1884899"
     height="2.5130899"
     rx="0.48819"
     transform="scale(-1)"
     fill="#3f3d56"
     id="rect27" />
  <rect
     x="-577.46936"
     y="-438.41888"
     width="4.1884899"
     height="2.5130899"
     rx="0.48819"
     transform="scale(-1)"
     fill="#3f3d56"
     id="rect28" />
  <rect
     x="-569.09235"
     y="-438.41888"
     width="4.1884899"
     height="2.5130899"
     rx="0.48819"
     transform="scale(-1)"
     fill="#3f3d56"
     id="rect29" />
  <rect
     x="-560.71533"
     y="-438.41888"
     width="4.1884899"
     height="2.5130899"
     rx="0.48819"
     transform="scale(-1)"
     fill="#3f3d56"
     id="rect30" />
  <rect
     x="-552.33844"
     y="-438.41888"
     width="4.1884899"
     height="2.5130899"
     rx="0.48819"
     transform="scale(-1)"
     fill="#3f3d56"
     id="rect31" />
  <rect
     x="-543.96143"
     y="-438.41888"
     width="4.1884899"
     height="2.5130899"
     rx="0.48819"
     transform="scale(-1)"
     fill="#3f3d56"
     id="rect32" />
  <rect
     x="-535.58447"
     y="-438.41888"
     width="4.1884899"
     height="2.5130899"
     rx="0.48819"
     transform="scale(-1)"
     fill="#3f3d56"
     id="rect33" />
  <rect
     x="-527.20746"
     y="-438.41888"
     width="4.1884899"
     height="2.5130899"
     rx="0.48819"
     transform="scale(-1)"
     fill="#3f3d56"
     id="rect34" />
  <rect
     x="-518.83051"
     y="-438.41888"
     width="4.1884899"
     height="2.5130899"
     rx="0.48819"
     transform="scale(-1)"
     fill="#3f3d56"
     id="rect35" />
  <rect
     x="-510.45349"
     y="-438.41888"
     width="4.1884899"
     height="2.5130899"
     rx="0.48819"
     transform="scale(-1)"
     fill="#3f3d56"
     id="rect36" />
  <rect
     x="-502.07654"
     y="-438.41888"
     width="4.1884899"
     height="2.5130899"
     rx="0.48819"
     transform="scale(-1)"
     fill="#3f3d56"
     id="rect37" />
  <rect
     x="-587.52173"
     y="-443.44507"
     width="33.507931"
     height="2.5130899"
     rx="0.48819"
     transform="scale(-1)"
     fill="#3f3d56"
     id="rect38" />
  <rect
     x="515.63104"
     y="358.73706"
     width="5.9658499"
     height="3.12216"
     rx="1.56108"
     fill="#ffffff"
     id="rect39" />
  <rect
     x="548.15405"
     y="358.73706"
     width="5.9658499"
     height="3.12216"
     rx="1.56108"
     fill="#ffffff"
     id="rect40" />
  <rect
     x="557.3689"
     y="358.73706"
     width="5.9658499"
     height="3.12216"
     rx="1.56108"
     fill="#ffffff"
     id="rect41" />
  <rect
     x="524.47742"
     y="358.47681"
     width="20.796129"
     height="3.12216"
     rx="1.56108"
     fill="#ffffff"
     id="rect42" />
  <rect
     x="567.84143"
     y="358.47681"
     width="20.796129"
     height="3.12216"
     rx="1.56108"
     fill="#ffffff"
     id="rect43" />
  <rect
     x="524.30383"
     y="365.78372"
     width="5.9658499"
     height="3.12216"
     rx="1.56108"
     fill="#ffffff"
     id="rect44" />
  <rect
     x="556.82684"
     y="365.78372"
     width="5.9658499"
     height="3.12216"
     rx="1.56108"
     fill="#ffffff"
     id="rect45" />
  <rect
     x="566.04175"
     y="365.78372"
     width="5.9658499"
     height="3.12216"
     rx="1.56108"
     fill="#ffffff"
     id="rect46" />
  <rect
     x="533.15021"
     y="365.52344"
     width="20.796129"
     height="3.12216"
     rx="1.56108"
     fill="#ffffff"
     id="rect47" />
  <rect
     x="576.51422"
     y="365.52344"
     width="20.796129"
     height="3.12216"
     rx="1.56108"
     fill="#ffffff"
     id="rect48" />
  <rect
     x="532.97668"
     y="372.83038"
     width="5.9658499"
     height="3.12216"
     rx="1.56108"
     fill="#ffffff"
     id="rect49" />
  <rect
     x="565.49969"
     y="372.83038"
     width="5.9658499"
     height="3.12216"
     rx="1.56108"
     fill="#ffffff"
     id="rect50" />
  <rect
     x="574.71454"
     y="372.83038"
     width="5.9658499"
     height="3.12216"
     rx="1.56108"
     fill="#ffffff"
     id="rect51" />
  <rect
     x="541.82306"
     y="372.5701"
     width="20.796129"
     height="3.12216"
     rx="1.56108"
     fill="#ffffff"
     id="rect52" />
  <rect
     x="585.18701"
     y="372.5701"
     width="20.796129"
     height="3.12216"
     rx="1.56108"
     fill="#ffffff"
     id="rect53" />
  <rect
     x="541.64948"
     y="379.87704"
     width="5.9658499"
     height="3.12216"
     rx="1.56108"
     fill="#ffffff"
     id="rect54" />
  <rect
     x="574.17249"
     y="379.87704"
     width="5.9658499"
     height="3.12216"
     rx="1.56108"
     fill="#ffffff"
     id="rect55" />
  <rect
     x="583.38733"
     y="379.87704"
     width="5.9658499"
     height="3.12216"
     rx="1.56108"
     fill="#ffffff"
     id="rect56" />
  <rect
     x="550.49585"
     y="379.61676"
     width="20.796129"
     height="3.12216"
     rx="1.56108"
     fill="#ffffff"
     id="rect57" />
  <rect
     x="548.15405"
     y="407.89752"
     width="5.9658499"
     height="3.12216"
     rx="1.56108"
     fill="#ffffff"
     id="rect58" />
  <rect
     x="557.3689"
     y="407.89752"
     width="5.9658499"
     height="3.12216"
     rx="1.56108"
     fill="#ffffff"
     id="rect59" />
  <rect
     x="567.84143"
     y="408.15778"
     width="20.796129"
     height="3.12216"
     rx="1.56108"
     fill="#ffffff"
     id="rect60" />
  <rect
     x="515.63104"
     y="407.89752"
     width="5.9658499"
     height="3.12216"
     rx="1.56108"
     fill="#ffffff"
     id="rect61" />
  <rect
     x="524.47742"
     y="408.15778"
     width="20.796129"
     height="3.12216"
     rx="1.56108"
     fill="#ffffff"
     id="rect62" />
  <rect
     x="524.30383"
     y="400.85086"
     width="5.9658499"
     height="3.12216"
     rx="1.56108"
     fill="#ffffff"
     id="rect63" />
  <rect
     x="556.82684"
     y="400.85086"
     width="5.9658499"
     height="3.12216"
     rx="1.56108"
     fill="#ffffff"
     id="rect64" />
  <rect
     x="566.04175"
     y="400.85086"
     width="5.9658499"
     height="3.12216"
     rx="1.56108"
     fill="#ffffff"
     id="rect65" />
  <rect
     x="533.15021"
     y="401.11115"
     width="20.796129"
     height="3.12216"
     rx="1.56108"
     fill="#ffffff"
     id="rect66" />
  <rect
     x="532.97668"
     y="393.8042"
     width="5.9658499"
     height="3.12216"
     rx="1.56108"
     fill="#ffffff"
     id="rect67" />
  <rect
     x="565.49969"
     y="393.8042"
     width="5.9658499"
     height="3.12216"
     rx="1.56108"
     fill="#ffffff"
     id="rect68" />
  <rect
     x="574.71454"
     y="393.8042"
     width="5.9658499"
     height="3.12216"
     rx="1.56108"
     fill="#ffffff"
     id="rect69" />
  <rect
     x="541.82306"
     y="394.06448"
     width="20.796129"
     height="3.12216"
     rx="1.56108"
     fill="#ffffff"
     id="rect70" />
  <rect
     x="541.64948"
     y="386.75754"
     width="5.9658499"
     height="3.12216"
     rx="1.56108"
     fill="#ffffff"
     id="rect71" />
  <rect
     x="574.17249"
     y="386.75754"
     width="5.9658499"
     height="3.12216"
     rx="1.56108"
     fill="#ffffff"
     id="rect72" />
  <rect
     x="583.38733"
     y="386.75754"
     width="5.9658499"
     height="3.12216"
     rx="1.56108"
     fill="#ffffff"
     id="rect73" />
  <rect
     x="550.49585"
     y="387.01782"
     width="20.796129"
     height="3.12216"
     rx="1.56108"
     fill="#ffffff"
     id="rect74" />
  <path
     d="m 504.91724,490.4816 -13.34954,-21.10162 41.902,-33.40283 17.29534,-19.16107 a 19.16138,19.16138 0 0 1 32.418,6.8279 v 0 a 19.16136,19.16136 0 0 1 -11.57015,23.991 l -27.3488,10.07535 z"
     fill="#ffb6b6"
     id="path74" />
  <path
     d="m 191.68997,337.4808 v 102.56 h 71.85 v -102.56 a 3.448,3.448 0 0 0 -2.43,-3.3 3.1749,3.1749 0 0 0 -1.03,-0.16 h -64.92 a 3.46328,3.46328 0 0 0 -3.47,3.46 z m 28.04,35.24 a 7.67033,7.67033 0 0 1 15.34,0 v 11.9 a 7.6701,7.6701 0 0 1 -15.34,0 z"
     fill="#2f2e41"
     id="path75" />
  <path
     d="m 191.47003,436.76087 v 9.89 a 1.94622,1.94622 0 0 0 1.93,1.94 h 68.43 a 1.93972,1.93972 0 0 0 1.93,-1.94 v -9.89 z"
     fill="#3f3d56"
     id="path76" />
  <path
     d="m 78.65997,182.96087 v 187.25992 a 9.00714,9.00714 0 0 0 9,9 h 277.5 a 9.0071,9.0071 0 0 0 9,-9 V 182.96087 a 9.01147,9.01147 0 0 0 -9,-8.99 h -277.5 a 9.01151,9.01151 0 0 0 -9,8.99 z"
     fill="#3f3d56"
     id="path77" />
  <path
     d="m 85.16997,185.2908 v 182.62 a 4.81833,4.81833 0 0 0 4.81,4.81 h 272.87 a 4.81829,4.81829 0 0 0 4.81,-4.81 v -182.62 a 4.82047,4.82047 0 0 0 -4.81,-4.82 h -272.87 a 4.82051,4.82051 0 0 0 -4.81,4.82 z"
     fill="#ffffff"
     id="path78" />
  <path
     d="m 135.80997,447.9208 a 2.9484,2.9484 0 0 0 2.32,1.11 h 162.34 a 2.98725,2.98725 0 0 0 2.92,-3.6 l -2.52,-11.97 a 2.99264,2.99264 0 0 0 -1.86,-2.17 2.89454,2.89454 0 0 0 -1.06,-0.19995 h -157.31 a 2.8943,2.8943 0 0 0 -1.06,0.19995 2.99239,2.99239 0 0 0 -1.86,2.17 l -2.52,11.97 a 2.985,2.985 0 0 0 0.61,2.49 z"
     fill="#2f2e41"
     id="path79" />
  <path
     d="M 353.99448,205.62753 H 98.67112 a 1.0156,1.0156 0 0 1 0,-2.0307 h 255.32336 a 1.0156,1.0156 0 0 1 0,2.0307 z"
     fill="#3f3d56"
     id="path80" />
  <ellipse
     cx="116.05131"
     cy="192.32964"
     rx="5.9504299"
     ry="6.0830402"
     fill="#3f3d56"
     id="ellipse80" />
  <ellipse
     cx="136.60733"
     cy="192.32964"
     rx="5.9504299"
     ry="6.0830402"
     fill="#3f3d56"
     id="ellipse81" />
  <ellipse
     cx="157.16336"
     cy="192.32964"
     rx="5.9504299"
     ry="6.0830402"
     fill="#3f3d56"
     id="ellipse82" />
  <path
     d="m 341.61634,187.75087 h -14.6 a 1.1053,1.1053 0 0 0 0,2.21 h 14.6 a 1.10511,1.10511 0 0 0 0,-2.21 z"
     fill="#3f3d56"
     id="path82" />
  <path
     d="m 341.61634,191.90087 h -14.6 a 1.10527,1.10527 0 0 0 0,2.21 h 14.6 a 1.10508,1.10508 0 0 0 0,-2.21 z"
     fill="#3f3d56"
     id="path83" />
  <path
     d="m 341.61634,196.05081 h -14.6 a 1.1053,1.1053 0 0 0 0,2.21 h 14.6 a 1.10511,1.10511 0 0 0 0,-2.21 z"
     fill="#3f3d56"
     id="path84" />
  <path
     d="m 693.59572,441.10125 a 6.41621,6.41621 0 0 0 6.1831,4.331 l 26.49183,-0.68178 a 6.3285,6.3285 0 0 0 5.98085,-4.657 l 3.74888,-40.08721 a 9.79409,9.79409 0 0 0 4.23793,0.87079 9.6613326,9.6613326 0 1 0 -0.4849,-19.31658 8.18393,8.18393 0 0 0 -1.73618,0.18056 6.54764,6.54764 0 0 0 -4.87405,-2.103 l -40.75051,1.05229 a 5.85294,5.85294 0 0 0 -1.00519,0.1248 6.36455,6.36455 0 0 0 -4.87318,8.26464 z m 43.17345,-43.81684 2.66764,-9.55274 a 6.50649,6.50649 0 0 0 0.0204,-3.37458 c 0.12944,-3.4e-4 0.24363,-0.0617 0.37307,-0.062 a 6.91049,6.91049 0 0 1 0.32357,13.81714 6.50527,6.50527 0 0 1 -3.38464,-0.82782 z"
     fill="#2f2e41"
     id="path85" />
  <path
     d="m 691.38748,380.8151 c 0.86818,4.96412 10.62909,8.45387 22.36585,7.84729 10.79271,-0.49726 19.61745,-4.287 21.23421,-8.7785 a 6.02511,6.02511 0 0 0 -1.84436,-0.24588 l -40.75051,1.05229 a 5.85294,5.85294 0 0 0 -1.00519,0.1248 z"
     fill="#3f3d56"
     id="path86" />
  <path
     d="m 715.90435,419.07302 a 0.49659,0.49659 0 0 0 0.15091,-0.0664 l 5.75315,-3.76566 a 0.49923,0.49923 0 0 0 3.2e-4,-0.83621 l -5.97978,-3.91667 a 0.49972,0.49972 0 1 0 -0.54792,0.83585 l 5.34091,3.49818 -5.114,3.34794 a 0.49991,0.49991 0 0 0 0.39637,0.903 z"
     fill="#6c63ff"
     id="path87" />
  <path
     d="m 706.81759,419.49206 a 0.5,0.5 0 0 0 0.12608,-0.91842 l -5.30306,-3.04034 5.1256,-3.80723 a 0.49963695,0.49963695 0 1 0 -0.596,-0.80208 l -5.73862,4.26265 a 0.49951,0.49951 0 0 0 0.0492,0.83476 l 5.96525,3.41968 a 0.4997,0.4997 0 0 0 0.37157,0.051 z"
     fill="#6c63ff"
     id="path88" />
  <path
     d="m 715.33212,422.37303 a 0.48233,0.48233 0 0 0 0.137,-0.0578 0.49976,0.49976 0 0 0 0.16752,-0.68714 l -8.15548,-13.40836 a 0.50026,0.50026 0 0 0 -0.85442,0.52058 l 8.15548,13.40835 a 0.50035,0.50035 0 0 0 0.5499,0.22442 z"
     fill="#6c63ff"
     id="path89" />
  <rect
     x="209.38454"
     y="260.82712"
     width="50.719158"
     height="10.8457"
     rx="3.2641699"
     fill="#6c63ff"
     id="rect89" />
  <rect
     x="183.62601"
     y="282.51852"
     width="102.23622"
     height="10.8457"
     rx="3.2641699"
     fill="#e6e6e6"
     id="rect90" />
  <rect
     x="183.62601"
     y="304.2099"
     width="102.23622"
     height="10.8457"
     rx="3.2641699"
     fill="#e6e6e6"
     id="rect91" />
  <path
     d="m 290.7112,376.84587 0.21675,0.68444 0.0114,0.0228 6.52515,19.838 7.50627,22.86094 14.1227,42.96133 0.13688,6.67346 v 0.0228 l 1.04949,53.6845 -2.90894,7.2781 3.274,11.93237 c 0,0 -1.50582,-18.037 -9.5824,-7.67884 -4.57448,5.8864 -9.92468,11.90961 -14.31668,17.55642 q 9.59964,3.88436 19.50716,7.0271 c 1.426,0.45633 2.86334,0.88983 4.30071,1.32333 q 0.46194,0.13692 0.924,0.27377 a 266.86342,266.86342 0 0 0 67.35086,10.82587 c 1.18637,0.0342 2.35,0.057 3.47932,0.0799 0.39932,0.0114 0.78714,0.0228 1.175,0.0228 1.27765,0.0114 2.54389,0.0228 3.82154,0.0228 q 3.86721,0 7.70018,-0.11405 a 266.85337,266.85337 0 0 0 56.09149,-7.58613 c -0.12547,-7.58606 -0.46768,-16.44984 -0.9582,-25.91819 -0.22817,-4.64293 -5.3502,-9.67369 -5.65823,-14.53336 -0.21675,-3.65047 4.38057,-7.08419 4.141,-10.79169 -1.55143,-22.82675 -3.49075,-14.06417 -4.92813,-30.22882 q -0.22245,-2.37852 -0.41066,-4.55165 c -0.924,-10.381 -1.56284,-16.872 -1.56284,-16.872 l 6.13733,-38.68338 9.6395,-60.73442 -0.74153,-1.22063 -0.83274,-0.41066 -50.844,-25.16532 -2.76064,-7.07276 a 10.97881,10.97881 0 0 0 -10.14143,-6.94731 l -33.4929,-0.13688 a 10.93117,10.93117 0 0 0 -8.90946,4.52888 l -9.069,12.55978 z"
     fill="#3f3d56"
     id="path91" />
  <path
     d="m 326.8165,453.65366 -7.58613,16.23321 -5.179,11.08822 -8.90939,46.646 -4.46044,4.73414 -3.82157,-16.75936 -39.99772,8.88094 c -1.31191,-7.28951 -0.3512,0.24662 -1.16117,-7.75009 0.22817,-0.22817 0.46768,-0.45634 0.70727,-0.68451 0.63882,-0.59322 1.175,-1.15218 1.1636,-1.68831 -0.45633,-27.58374 0.9126,-74.52633 12.34311,-102.96564 a 60.05328,60.05328 0 0 1 7.02709,-13.1074 c 0.22817,-0.308 0.44492,-0.61606 0.66167,-0.924 5.27034,-7.3808 8.60136,-14.64748 13.32415,-19.81511 v -0.0114 a 0.53028,0.53028 0 0 0 0.0799,-0.0799 0.157,0.157 0 0 0 0.0456,-0.0343 l 32.44341,-17.20272 1.39177,39.10546 0.99247,28.10851 z"
     fill="#3f3d56"
     id="path92" />
  <path
     d="m 443.80137,458.26436 9.476,20.275 3.30742,7.06091 8.90681,46.64162 4.44575,4.72264 3.83039,-16.75524 1.7998,-0.36918 32.4585,-6.72243 9.46058,30.04631 a 17.984,17.984 0 0 0 -3.26122,-22.50556 c -0.64606,-0.58457 -1.18444,-1.15373 -1.16913,-1.69211 0.53847,-32.4431 -1.446,-91.68363 -19.36733,-116.06588 -5.69179,-7.73777 -9.1068,-15.44474 -14.07562,-20.82885 -0.0154,-0.0153 -0.0154,-0.0307 -0.0307,-0.0307 l -12.09124,-19.79812 -0.73836,-1.21533 -0.83066,-0.41528 z"
     fill="#3f3d56"
     id="path93" />
  <circle
     id="a657ec4b-47ce-4d2a-9c58-81a811696ca9"
     data-name="Ellipse 5"
     cx="386.39651"
     cy="267.20053"
     r="44.558262"
     fill="#ffb6b6" />
  <path
     d="m 446.62224,236.07678 a 3.75933,3.75933 0 0 0 -2.69,-1.19 l 0.67,-1.86 a 3.52769,3.52769 0 0 0 -3.96,-4.7 l -2.44,0.47 0.23,-1.63 a 3.53387,3.53387 0 0 0 -4.73,-3.82 3.76631,3.76631 0 0 1 -3.24,-0.23 3.84647,3.84647 0 0 1 -1.92,-2.61005 l -0.85,-4.1 -0.09,-0.22 c -4.14,-6.9 -12.1,-11.92 -21.84,-13.76 -8.67005,-1.65 -17.56,-0.81 -26.13,-0.02 -3.4,0.32 -7.24,0.68 -10.44,2.64 -2.72,1.68 -5.02,5.04 -4.55,8.43 -8.45,-2.59 -17.51,2.58 -22,9.1 -5.32,7.76 -6.19,17.48 -6.33,25.08 -0.38,17.98 3.33,32.69 11,43.73 0.56,0.8 0.7,2.47 1.81,3.03 l -0.23,-0.37 c 1.24,0.62 2.5,1.62 2.03,2.69 -1.35,3.08 7.62,9.89 13.94,12.14 11.53,4.11 26.86,3.76 37.64,2.28 l 0.38,-2.55 c 3.89,-0.53 6.63,-1.54 7.4,-3.12 1.36005,-1.16 2.52,-2.2 3.53,-3.16 l 0.01,-0.01 c 0.02,-0.02 0.06,-0.05 0.08,-0.07 4.87,-4.67 6,-7.32995 6.51,-11.37994 0.49,-3.97 -0.38,-8 -1.27,-11.63 18.74,2.9 -7.38,-19.96 10.08,-24.38 a 5.434,5.434 0 0 1 0.61,-0.15 c 0.51,-0.12 1.02,-0.24 1.51,-0.38 a 26.44846,26.44846 0 0 0 6.72,-2.87 c 4.88,-2.97 6.49,-6.91 9.01,-11.35 a 3.42652,3.42652 0 0 0 -0.45,-4.03001 z"
     fill="#2f2e41"
     id="path94" />
  <path
     d="m 543.99224,461.43677 c -0.01,1.75 -0.03,4.2 -0.11,7.23 q -0.015,0.63 -0.03,1.29 c -0.13,5.57 -0.26,10.24 -0.47,15.43 -0.01,0.36 -0.02,0.71 -0.04,1.07 -0.28,7.24 -0.72,15.67 -1.48,29.02 -1.41,24.66 -3.87,3.39 -6.34,12.04 -0.12,0.43 -0.25,0.94 -0.37,1.54 a 27.91582,27.91582 0 0 1 -1.88,6.33 c -1.31,0.78 -2.66,1.53 -3.99,2.28 -3.79,2.11 -7.63995,4.13995 -11.51995,6.07 -2.18006,1.08 -4.37,2.14 -6.57,3.16 -0.35,0.16 -0.69,0.32 -1.03,0.47 a 270.88715,270.88715 0 0 1 -34.75,13.26 c -2.32,0.7 -4.63,1.38 -6.97,2.01 -2.44,0.68 -4.88,1.32 -7.35,1.92 a 266.8933,266.8933 0 0 1 -56.09,7.59 c -2.55,0.08 -5.12,0.11 -7.7,0.11 -1.28,0 -2.54,-0.01 -3.82,-0.02 -0.39,0 -0.78,-0.01 -1.17,-0.02 -1.13,-0.03 -2.3,-0.05 -3.48,-0.08 a 266.66307,266.66307 0 0 1 -67.35,-10.83 l -0.93,-0.27 c -1.44,-0.44 -2.87,-0.87 -4.3,-1.33 q -9.90006,-3.135 -19.51,-7.02 -7.335,-2.955 -14.5,-6.34 a 0.33861,0.33861 0 0 1 -0.12,-0.06 c -1,-0.46 -2.01,-0.94 -3.01,-1.43 -0.13,-0.07 -0.27,-0.14 -0.41,-0.21 q -5.59506,-2.73 -11.07,-5.72 c -3.07,-7.05005 -7.39,-8.4 -10.07,-14.6 a 25.87356,25.87356 0 0 1 -1.68,-5.74 c 0,-0.02 -0.01,-0.04 -0.01,-0.07 0.28,3.72 -1.19,-6.6 -0.01,-0.04 -0.01,-0.12 -0.02,-0.25 -0.03,-0.4 -0.03,-0.36 -0.0699,-0.8 -0.12994,-1.35 -3.43,-33.49 -3.21,-71.79 -4.7,-103.35 q -0.15006,-3.06 -0.31,-5.86 c -0.03,-0.62 -0.07,-1.23 -0.11005,-1.83 0.07,-0.18 0.15,-0.37 0.24,-0.55 a 1.002,1.002 0 0 1 0.07,-0.15 1.62294,1.62294 0 0 1 0.1,-0.18 c 0.02,-0.03 0.05,-0.07 0.07,-0.1 a 0.91693,0.91693 0 0 1 0.05,-0.1 c 0.09,-0.14 0.19,-0.29 0.3,-0.43 0.05,-0.06 0.09,-0.11005 0.14,-0.16 a 0.80824,0.80824 0 0 1 0.12,-0.14 0.637,0.637 0 0 1 0.11,-0.13 c 0.04,-0.04 0.08,-0.09 0.13,-0.13995 a 0.30159,0.30159 0 0 1 0.08,-0.08 2.03313,2.03313 0 0 1 0.26,-0.25 9.62387,9.62387 0 0 1 1.14,-0.9 c 0.13995,-0.09 0.29,-0.18 0.43,-0.28 a 19.13528,19.13528 0 0 1 3.17,-1.52 c 0.38,-0.14 0.76,-0.27 1.17,-0.41 0.15,-0.04 0.29,-0.09 0.44,-0.14 0.22,-0.07 0.44,-0.14 0.67,-0.19 1.14,-0.34 2.37,-0.63 3.7,-0.9 0.16,-0.03 0.33,-0.06 0.5,-0.1 0.24,-0.05 0.49,-0.09 0.74,-0.13 0.34,-0.06 0.69,-0.12 1.04,-0.18 2.97,-0.47 6.34,-0.82 10.06,-1.05 q 0.525,-0.03 1.05,-0.06 c 0.41,-0.02 0.82,-0.04 1.24,-0.06 0.35,-0.02 0.71,-0.03 1.07,-0.04 0.35,-0.02 0.71,-0.03 1.08,-0.04 1.01,-0.03 2.05,-0.06 3.11,-0.08 3.02,-0.06 6.2,-0.04 9.54,0.03 1.55,0.04 3.13,0.08 4.75,0.15 0.11005,0 0.21,0.01 0.31,0.01 1.41,0.05 2.83,0.11 4.29,0.19 1.02,0.05 2.05,0.1 3.07995,0.16 0.97,0.06 1.95,0.12 2.94,0.19 0.77,0.04 1.54,0.1 2.32,0.15 0.66,0.05 1.32,0.1 1.98,0.14 l 0.9,0.06 c 0.49,0.04 0.98,0.07 1.48,0.12 1.1,0.09 2.2,0.18 3.32,0.27 1.11,0.1 2.24,0.2 3.37,0.3 1.13,0.1 2.27,0.21 3.41,0.32 0.12,0.01 0.23,0.02 0.34,0.03 1.04,0.11005 2.08,0.21 3.13,0.32 0.24,0.02 0.49,0.04 0.73,0.07 1.0011,0.10058 2.02173,0.21832 3.032,0.32568 0.31006,0.0335 0.61847,0.0659 0.92944,0.0998 0.79139,0.0862 1.57154,0.16089 2.36847,0.25446 1.05,0.12 2.12006,0.23 3.16,0.37 0.81,0.09 1.62,0.18 2.43,0.28 1.27,0.15 2.56,0.31 3.85,0.48 0.49,0.06 0.98,0.12 1.47,0.19 3.68,0.46 7.4,0.97 11.18,1.5 5.73,0.81 11.55,1.69 17.41,2.64 q 8.80509,1.425 17.71,3.01 c 1.5,0.27 3,0.54 4.51,0.82 q 1.02,0.19491 2.04,0.38995 c 1.16,0.21 2.32,0.43 3.48,0.65 1.16,0.22 2.32,0.44 3.48,0.67 1.38,0.27 2.77,0.54 4.15,0.81 9.09,1.8 18.12994,3.72 26.95,5.73 1.45,0.32995 2.9,0.67 4.34,1 q 4.32,1.005 8.56,2.04 c 0.78,0.18 1.55,0.37 2.32,0.56 1.92,0.48 3.84,0.96 5.73,1.45 l 0.33,0.09 c 1.39,0.34 2.75,0.69 4.11,1.05 q 4.815,1.26 9.47,2.55 3.09,0.855 6.11,1.73 c 3.01,0.87 5.96,1.75 8.83,2.64 0.71,0.22 1.42,0.44 2.12,0.65 2.1,0.65 4.17,1.31 6.18,1.97 1.6,0.52 3.16,1.05 4.7,1.58 q 2.31,0.795 4.53,1.59 c 0.95,0.34 1.89,0.7 2.83,1.04 1.35,0.5 2.68,1 3.98,1.5 0.4,0.15 0.79,0.31 1.18,0.46 0.25,0.11 0.49,0.2 0.73,0.3 0.47,0.19 0.95,0.37 1.41,0.56 0.47,0.18 0.93,0.37 1.39,0.57 0.45,0.18 0.91,0.37 1.35,0.56 0.45,0.18 0.89,0.37 1.33,0.57 0.37,0.15 0.73,0.31 1.08,0.47 0.71,0.31 1.42,0.62 2.11,0.94 0.34,0.16 0.68,0.31 1.02,0.47 l 0.78,0.36 c 0.11,0.06 0.22,0.11 0.33,0.16 0.25,0.12 0.51,0.25 0.76,0.37 0.57995,0.27 1.15,0.56 1.71,0.83 0.75,0.38 1.48,0.76 2.18,1.13 0.71,0.37994 1.4,0.76 2.06,1.12994 0.11,0.06 0.21,0.12006 0.32,0.18006 0.15,0.0799 0.3,0.17 0.45,0.25 0.51,0.29 1,0.59 1.49,0.87994 0.96,0.59 1.87,1.17 2.72,1.75 0.19,0.13 0.37,0.26 0.56,0.38 0.63,0.45 1.23,0.89 1.79,1.34 0,0.01 0,0.01 0.01,0.01 0.19,0.14 0.37,0.29 0.55,0.43 0.15,0.14 0.31,0.26 0.46,0.4 0.52,0.45 1,0.87994 1.44,1.32 a 5.667,5.667 0 0 1 0.42,0.43 1.20839,1.20839 0 0 1 0.16,0.16 c 0.2,0.2 0.38,0.4 0.55,0.6 a 0.55257,0.55257 0 0 1 0.07,0.09 c 0.24,0.28 0.46,0.56 0.67,0.84 0.1,0.14 0.21,0.28 0.3,0.42 0.12,0.17 0.24,0.35 0.34,0.52 0.09,0.14 0.17,0.29 0.25,0.43006 a 7.2566,7.2566 0 0 1 0.54,1.12994 5.2413,5.2413 0 0 1 0.27,0.82 5.84442,5.84442 0 0 1 0.17008,0.81007 z"
     fill="#2f2e41"
     id="path95" />
  <path
     d="m 543.99224,461.43677 c -0.01,1.75 -0.03,4.2 -0.11,7.23 -0.01,0.42 -0.03,0.85 -0.04,1.29 -0.1,4.25 -0.25,9.5 -0.46,15.43 -0.01,0.36 -0.02,0.71 -0.04,1.07 -0.28,7.24 -0.72,15.67 -1.48,29.02 -1.41,24.66 -3.87,3.39 -6.34,12.04 -6.86,-4.22 -14.38,-8.64 -22.42,-13.18 q -2.175,-1.23 -4.39,-2.47 c -16.08,-8.97 -34.04,-18.37006 -52.79,-27.68 -0.74,-0.37 -1.49,-0.74 -2.23,-1.1 -42.95,-21.23 -89.83,-41.88 -127.81,-55.66 -7.33,-2.66 -14.33,-5.06 -20.91,-7.17005 -13.86,-4.43 -25.84,-7.53 -35.06,-8.87 -9.6,-1.4 -16.23,-0.9 -18.91,1.99 q -0.15006,-3.06 -0.31,-5.86 -0.0601,-0.93 -0.12,-1.83 c 0.0617,-0.16462 0.14191,-0.32172 0.21955,-0.48017 0.0111,-0.0231 0.019,-0.047 0.0304,-0.0698 a 1.002,1.002 0 0 1 0.07,-0.15 1.62294,1.62294 0 0 1 0.1,-0.18 1.05985,1.05985 0 0 1 0.12,-0.2 c 0.09,-0.14 0.19,-0.29 0.3,-0.43 a 3.48261,3.48261 0 0 1 0.26,-0.30005 0.637,0.637 0 0 1 0.11,-0.13 c 0.04,-0.04 0.08,-0.09 0.13,-0.13995 a 0.30159,0.30159 0 0 1 0.08,-0.08 2.03313,2.03313 0 0 1 0.26,-0.25 9.62387,9.62387 0 0 1 1.14,-0.9 c 0.13995,-0.09 0.29,-0.18 0.43,-0.28 a 19.13528,19.13528 0 0 1 3.17,-1.52 c 0.38,-0.14 0.76,-0.27 1.17,-0.41 0.15,-0.04 0.29,-0.09 0.44,-0.14 0.22,-0.07 0.44,-0.14 0.67,-0.19 1.14,-0.34 2.37,-0.63 3.7,-0.9 0.4,-0.08 0.82,-0.16 1.24,-0.23 0.34,-0.06 0.69,-0.12 1.04,-0.18 2.97,-0.47 6.34,-0.82 10.06,-1.05 q 0.525,-0.03 1.05,-0.06 c 0.41,-0.02 0.82,-0.04 1.24,-0.06 0.35,-0.02 0.71,-0.03 1.07,-0.04 0.35,-0.02 0.71,-0.03 1.08,-0.04 1.01,-0.03 2.05,-0.06 3.11,-0.08 3.02,-0.05 6.2,-0.03 9.54,0.04 1.55,0.03 3.13,0.08 4.75,0.15 0.1,0 0.21,0.01 0.31,0.01 1.41,0.04 2.84,0.11 4.29,0.18 1.02,0.05 2.05,0.1 3.07995,0.16 0.97,0.06 1.95,0.12 2.94,0.19 0.77,0.04 1.54,0.1 2.32,0.15 0.66,0.05 1.32,0.1 1.98,0.14 0.79,0.06 1.58,0.12 2.38,0.18 1.1,0.09 2.2,0.18 3.32,0.27 1.11,0.1 2.24,0.2 3.37,0.3 1.13,0.1 2.27,0.21 3.41,0.32 0.12,0.01 0.23,0.02 0.34,0.03 1.04,0.11005 2.08,0.21 3.13,0.32 q 8.73,0.885 17.97,2.07 5.52,0.705 11.18,1.51 c 5.73,0.81 11.55,1.69 17.41,2.63 q 8.80509,1.425 17.71,3.01 c 1.5,0.27 3,0.54 4.51,0.82 q 2.76,0.50994 5.52,1.04 c 1.16,0.22 2.32,0.44 3.48,0.67 1.38,0.27 2.77,0.54 4.15,0.81 9.09,1.8 18.12994,3.72 26.95,5.73 1.45,0.32995 2.9,0.67 4.34,1 q 4.32,1.005 8.56,2.04 c 0.78,0.19 1.55,0.38 2.32,0.57 q 2.895,0.72 5.73,1.44 v 0.01 c 0.11,0.02 0.22,0.05 0.33,0.08 1.38,0.35 2.75,0.7 4.11,1.06 q 4.815,1.26 9.47,2.54 c 2.06,0.57995 4.1,1.15 6.11,1.73 3.01,0.88 5.96,1.76 8.83,2.64 0.71,0.22 1.42,0.44 2.12,0.65 q 3.15,0.99 6.18,1.97 c 1.6,0.52 3.16,1.05 4.7,1.58 q 2.31,0.795 4.53,1.59 c 0.96,0.34 1.9,0.69 2.83,1.03 1.36,0.5 2.68,1 3.98,1.51 0.4,0.15 0.79,0.31 1.18,0.46 0.73,0.28 1.44,0.57 2.14,0.86 0.47,0.18 0.93,0.37 1.39,0.57 0.45,0.18 0.91,0.37 1.35,0.56 0.45,0.18 0.89,0.37 1.33,0.57 0.37,0.15 0.73,0.31 1.08,0.47 0.71,0.31 1.42,0.62 2.11,0.94 0.34,0.16 0.68,0.31 1.02,0.47 l 0.78,0.36 c 0.11,0.06 0.22,0.11 0.33,0.16 0.85,0.4 1.67,0.8 2.47,1.2 0.75,0.38 1.48,0.76 2.18,1.13 0.83,0.43994 1.62,0.87 2.38,1.31 0.15,0.0799 0.3,0.17 0.45,0.25 0.51,0.29 1,0.59 1.49,0.87994 0.96,0.59 1.87,1.17 2.72,1.75 0.84,0.58 1.62,1.15 2.35,1.72 0,0.01 0,0.01 0.01,0.01 0.35,0.28 0.69,0.56 1.01,0.83 0.52,0.45 1,0.87994 1.44,1.32 a 5.667,5.667 0 0 1 0.42,0.43 1.20839,1.20839 0 0 1 0.16,0.16 c 0.21,0.23 0.42,0.46 0.62006,0.69 0.24,0.28 0.46,0.56 0.67,0.84 0.1,0.14 0.21,0.28 0.3,0.42 0.12,0.17 0.24,0.35 0.34,0.52 0.09,0.14 0.17,0.29 0.25,0.43006 a 7.2566,7.2566 0 0 1 0.54,1.12994 6.05312,6.05312 0 0 1 0.27,0.82 5.84442,5.84442 0 0 1 0.16999,0.8101 z"
     opacity="0.2"
     id="path96" />
</svg>
